<svg xmlns="http://www.w3.org/2000/svg" viewBox="0 0 900 1200" role="img" aria-labelledby="title desc">
  <title id="title">Tre levande linjetecknade granar</title>
  <desc id="desc">En lågmäld ikon med tre stiliserade granar i tunn grön linje.</desc>
  <rect width="900" height="1200" fill="#f8f5ef"/>
  <g fill="none" stroke="#17422f" stroke-linecap="round" stroke-linejoin="round" stroke-width="5">
    <path d="M304 664c82-8 181-8 292 0"/>
    <g transform="translate(360 416)">
      <path d="M0 10c-2 48-1 150 2 234"/>
      <path d="M-5 36c-16 18-35 31-58 42"/>
      <path d="M3 42c18 14 38 25 60 34"/>
      <path d="M-4 74c-23 20-49 35-78 45"/>
      <path d="M5 82c25 18 52 31 82 39"/>
      <path d="M-2 118c-21 17-45 30-72 40"/>
      <path d="M6 126c22 15 47 27 76 34"/>
      <path d="M0 164c-15 12-32 22-52 30"/>
      <path d="M8 170c17 11 36 20 58 26"/>
    </g>
    <g transform="translate(458 360)">
      <path d="M0 8c-3 64-2 200 3 304"/>
      <path d="M-6 42c-21 23-46 40-75 53"/>
      <path d="M4 50c23 18 49 32 79 42"/>
      <path d="M-5 90c-29 27-62 46-99 58"/>
      <path d="M6 100c31 23 66 39 104 49"/>
      <path d="M-4 146c-27 23-58 40-93 51"/>
      <path d="M8 154c29 20 61 35 98 44"/>
      <path d="M-1 202c-21 17-45 31-74 40"/>
      <path d="M9 208c23 16 50 28 80 35"/>
    </g>
    <g transform="translate(548 430)">
      <path d="M0 8c2 46 1 142-2 226"/>
      <path d="M-3 34c-17 17-36 30-59 39"/>
      <path d="M4 40c18 14 39 24 62 32"/>
      <path d="M-4 72c-24 21-50 36-80 45"/>
      <path d="M5 80c25 18 53 31 84 38"/>
      <path d="M-3 116c-21 17-46 30-74 38"/>
      <path d="M5 122c23 15 48 26 77 32"/>
      <path d="M-2 158c-16 12-35 22-56 29"/>
      <path d="M4 164c18 11 38 19 61 24"/>
    </g>
  </g>
</svg>
